<svg viewBox="0 0 330 200" xmlns="http://www.w3.org/2000/svg"><g><g><g><g><g><line x1="50" y1="177" x2="45" y2="177" style="visibility: inherit;" fill="rgb(0, 0, 0)" stroke="rgb(204, 204, 204)" stroke-width="1px"></line><line x1="50" y1="157.33333333333334" x2="45" y2="157.33333333333334" style="visibility: inherit;" fill="rgb(0, 0, 0)" stroke="rgb(204, 204, 204)" stroke-width="1px"></line><line x1="50" y1="137.66666666666666" x2="45" y2="137.66666666666666" style="visibility: inherit;" fill="rgb(0, 0, 0)" stroke="rgb(204, 204, 204)" stroke-width="1px"></line><line x1="50" y1="118.00000000000001" x2="45" y2="118.00000000000001" style="visibility: inherit;" fill="rgb(0, 0, 0)" stroke="rgb(204, 204, 204)" stroke-width="1px"></line><line x1="50" y1="98.33333333333334" x2="45" y2="98.33333333333334" style="visibility: inherit;" fill="rgb(0, 0, 0)" stroke="rgb(204, 204, 204)" stroke-width="1px"></line><line x1="50" y1="78.6666666666667" x2="45" y2="78.6666666666667" style="visibility: inherit;" fill="rgb(0, 0, 0)" stroke="rgb(204, 204, 204)" stroke-width="1px"></line><line x1="50" y1="59.00000000000001" x2="45" y2="59.00000000000001" style="visibility: inherit;" fill="rgb(0, 0, 0)" stroke="rgb(204, 204, 204)" stroke-width="1px"></line><line x1="50" y1="39.33333333333337" x2="45" y2="39.33333333333337" style="visibility: inherit;" fill="rgb(0, 0, 0)" stroke="rgb(204, 204, 204)" stroke-width="1px"></line><line x1="50" y1="19.666666666666675" x2="45" y2="19.666666666666675" style="visibility: inherit;" fill="rgb(0, 0, 0)" stroke="rgb(204, 204, 204)" stroke-width="1px"></line><line x1="50" y1="0" x2="45" y2="0" style="visibility: inherit;" fill="rgb(0, 0, 0)" stroke="rgb(204, 204, 204)" stroke-width="1px"></line></g><g transform="translate(40, 0)"><text x="0" y="177" dx="0em" dy="0.3em" style="text-anchor: end; visibility: hidden; font-family: Roboto, sans-serif; font-size: 12px; font-weight: 200;" fill="rgb(33, 33, 33)" stroke="none" stroke-width="1px">0.1</text><text x="0" y="157.33333333333334" dx="0em" dy="0.3em" style="text-anchor: end; visibility: inherit; font-family: Roboto, sans-serif; font-size: 12px; font-weight: 200;" fill="rgb(33, 33, 33)" stroke="none" stroke-width="1px">0.15</text><text x="0" y="137.66666666666666" dx="0em" dy="0.3em" style="text-anchor: end; visibility: hidden; font-family: Roboto, sans-serif; font-size: 12px; font-weight: 200;" fill="rgb(33, 33, 33)" stroke="none" stroke-width="1px">0.2</text><text x="0" y="118.00000000000001" dx="0em" dy="0.3em" style="text-anchor: end; visibility: inherit; font-family: Roboto, sans-serif; font-size: 12px; font-weight: 200;" fill="rgb(33, 33, 33)" stroke="none" stroke-width="1px">0.25</text><text x="0" y="98.33333333333334" dx="0em" dy="0.3em" style="text-anchor: end; visibility: hidden; font-family: Roboto, sans-serif; font-size: 12px; font-weight: 200;" fill="rgb(33, 33, 33)" stroke="none" stroke-width="1px">0.3</text><text x="0" y="78.6666666666667" dx="0em" dy="0.3em" style="text-anchor: end; visibility: inherit; font-family: Roboto, sans-serif; font-size: 12px; font-weight: 200;" fill="rgb(33, 33, 33)" stroke="none" stroke-width="1px">0.35</text><text x="0" y="59.00000000000001" dx="0em" dy="0.3em" style="text-anchor: end; visibility: hidden; font-family: Roboto, sans-serif; font-size: 12px; font-weight: 200;" fill="rgb(33, 33, 33)" stroke="none" stroke-width="1px">0.4</text><text x="0" y="39.33333333333337" dx="0em" dy="0.3em" style="text-anchor: end; visibility: inherit; font-family: Roboto, sans-serif; font-size: 12px; font-weight: 200;" fill="rgb(33, 33, 33)" stroke="none" stroke-width="1px">0.45</text><text x="0" y="19.666666666666675" dx="0em" dy="0.3em" style="text-anchor: end; visibility: hidden; font-family: Roboto, sans-serif; font-size: 12px; font-weight: 200;" fill="rgb(33, 33, 33)" stroke="none" stroke-width="1px">0.5</text><text x="0" y="0" dx="0em" dy="0.3em" style="text-anchor: end; visibility: hidden; font-family: Roboto, sans-serif; font-size: 12px; font-weight: 200;" fill="rgb(33, 33, 33)" stroke="none" stroke-width="1px">0.55</text></g><line x1="50" y1="0" x2="50" y2="177" fill="rgb(0, 0, 0)" stroke="rgb(204, 204, 204)" stroke-width="1px"></line></g></g><g transform="translate(50, 0)" clip-path="url(#clip_0)"><clipPath id="clip_0"><rect width="280" height="177"></rect></clipPath><g><g><g><line x1="0" y1="0" x2="0" y2="177" fill="rgb(0, 0, 0)" stroke="rgb(66, 66, 66)" stroke-width="1px" opacity="0.25"></line><line x1="23.333333333333332" y1="0" x2="23.333333333333332" y2="177" fill="rgb(0, 0, 0)" stroke="rgb(66, 66, 66)" stroke-width="1px" opacity="0.25"></line><line x1="46.666666666666664" y1="0" x2="46.666666666666664" y2="177" fill="rgb(0, 0, 0)" stroke="rgb(66, 66, 66)" stroke-width="1px" opacity="0.25"></line><line x1="70" y1="0" x2="70" y2="177" fill="rgb(0, 0, 0)" stroke="rgb(66, 66, 66)" stroke-width="1px" opacity="0.25"></line><line x1="93.33333333333333" y1="0" x2="93.33333333333333" y2="177" fill="rgb(0, 0, 0)" stroke="rgb(66, 66, 66)" stroke-width="1px" opacity="0.25"></line><line x1="116.66666666666667" y1="0" x2="116.66666666666667" y2="177" fill="rgb(0, 0, 0)" stroke="rgb(66, 66, 66)" stroke-width="1px" opacity="0.25"></line><line x1="140" y1="0" x2="140" y2="177" fill="rgb(0, 0, 0)" stroke="rgb(66, 66, 66)" stroke-width="1px" opacity="0.25"></line><line x1="163.33333333333334" y1="0" x2="163.33333333333334" y2="177" fill="rgb(0, 0, 0)" stroke="rgb(66, 66, 66)" stroke-width="1px" opacity="0.25"></line><line x1="186.66666666666666" y1="0" x2="186.66666666666666" y2="177" fill="rgb(0, 0, 0)" stroke="rgb(66, 66, 66)" stroke-width="1px" opacity="0.25"></line><line x1="210" y1="0" x2="210" y2="177" fill="rgb(0, 0, 0)" stroke="rgb(66, 66, 66)" stroke-width="1px" opacity="0.25"></line><line x1="233.33333333333334" y1="0" x2="233.33333333333334" y2="177" fill="rgb(0, 0, 0)" stroke="rgb(66, 66, 66)" stroke-width="1px" opacity="0.25"></line><line x1="256.66666666666663" y1="0" x2="256.66666666666663" y2="177" fill="rgb(0, 0, 0)" stroke="rgb(66, 66, 66)" stroke-width="1px" opacity="0.25"></line><line x1="280" y1="0" x2="280" y2="177" fill="rgb(0, 0, 0)" stroke="rgb(66, 66, 66)" stroke-width="1px" opacity="0.25"></line></g><g><line x1="0" y1="177" x2="280" y2="177" fill="rgb(0, 0, 0)" stroke="rgb(66, 66, 66)" stroke-width="1px" opacity="0.25"></line><line x1="0" y1="157.33333333333334" x2="280" y2="157.33333333333334" fill="rgb(0, 0, 0)" stroke="rgb(66, 66, 66)" stroke-width="1px" opacity="0.25"></line><line x1="0" y1="137.66666666666666" x2="280" y2="137.66666666666666" fill="rgb(0, 0, 0)" stroke="rgb(66, 66, 66)" stroke-width="1px" opacity="0.25"></line><line x1="0" y1="118.00000000000001" x2="280" y2="118.00000000000001" fill="rgb(0, 0, 0)" stroke="rgb(66, 66, 66)" stroke-width="1px" opacity="0.25"></line><line x1="0" y1="98.33333333333334" x2="280" y2="98.33333333333334" fill="rgb(0, 0, 0)" stroke="rgb(66, 66, 66)" stroke-width="1px" opacity="0.25"></line><line x1="0" y1="78.6666666666667" x2="280" y2="78.6666666666667" fill="rgb(0, 0, 0)" stroke="rgb(66, 66, 66)" stroke-width="1px" opacity="0.25"></line><line x1="0" y1="59.00000000000001" x2="280" y2="59.00000000000001" fill="rgb(0, 0, 0)" stroke="rgb(66, 66, 66)" stroke-width="1px" opacity="0.25"></line><line x1="0" y1="39.33333333333337" x2="280" y2="39.33333333333337" fill="rgb(0, 0, 0)" stroke="rgb(66, 66, 66)" stroke-width="1px" opacity="0.25"></line><line x1="0" y1="19.666666666666675" x2="280" y2="19.666666666666675" fill="rgb(0, 0, 0)" stroke="rgb(66, 66, 66)" stroke-width="1px" opacity="0.25"></line><line x1="0" y1="0" x2="280" y2="0" fill="rgb(0, 0, 0)" stroke="rgb(66, 66, 66)" stroke-width="1px" opacity="0.25"></line></g></g></g><g><g><line x1="0" y1="216.33333333333334" x2="280" y2="216.33333333333334" fill="rgb(0, 0, 0)" stroke="rgb(153, 153, 153)" stroke-width="1.5px"></line></g></g><g><g><line x1="23.333333333333332" y1="0" x2="23.333333333333332" y2="177" fill="rgb(0, 0, 0)" stroke="rgb(153, 153, 153)" stroke-width="1.5px"></line></g></g><g><g><g><g><g><path stroke="rgb(0, 119, 187)" stroke-width="2px" d="M25.666666666666664,32.84005729357403L28,80.01909686128299L30.333333333333336,101.35214618517428L32.666666666666664,111.33888947196745L35,116.73566681743635L37.333333333333336,119.99240785080111L39.666666666666664,122.5565982743565L42,124.8815178690434L44.33333333333333,126.29395965198445L46.666666666666664,127.7789426798066L49,128.70621279073583L51.33333333333333,130.7612010401962L53.66666666666667,131.91817877887925L56,132.54946729194458L58.333333333333336,132.571838323474L60.66666666666667,133.7152365359512L63,134.68349399518317L65.33333333333333,135.55451505753078L67.66666666666667,136.15302179727473L70,136.62710428935154L72.33333333333334,137.40518436643623L74.66666666666667,138.28804012562213L77,139.30505317001075L79.33333333333333,138.8353129632466L81.66666666666667,139.11778317374907L84,140.61622755122602L86.33333333333334,140.1282844023276L88.66666666666666,141.4796212235437L91,141.5172840566734L93.33333333333333,141.05083888061358L95.66666666666667,141.7242438332646L98,141.3025763058691L100.33333333333333,141.94406299618598L102.66666666666666,142.70153254947328L105,143.4936735926026L107.33333333333334,144.26215739434588L109.66666666666667,144.65031888358982L112,144.79498945691176L114.33333333333333,145.30003218972743L116.66666666666667,144.73822328049778L119,146.16552598153095L121.33333333333334,146.17141170625897L123.66666666666666,147.10626392783897L126,146.16480522073198L128.33333333333331,146.00687013892812L130.66666666666666,147.33890814885947L133,147.64090841198373L135.33333333333334,147.64898739567064L137.66666666666666,148.42544464853856L140,147.7481889362327L142.33333333333331,145.71120767802157L144.66666666666669,146.2043376426522L147,147.44946675662163L149.33333333333334,149.1012461334323L151.66666666666666,148.5624058176984L154,148.5186256366914L156.33333333333334,149.26127127396754L158.66666666666666,149.03685488455108L161,149.12556074153946L163.33333333333334,149.80870497678663L165.66666666666666,149.41415936423306L168,150.7524213552851L170.33333333333331,150.39851235709855L172.66666666666669,147.73787021256842L175,148.20777474811095L177.33333333333331,149.60680538994322L179.66666666666669,149.82336453546435L182,150.06308824191103L184.33333333333334,150.6389951052444L186.66666666666666,148.95553317917447L189,149.0050603901529L191.33333333333334,149.37047138741713L193.66666666666666,149.13411645252168L196,149.54863194719152L198.33333333333334,149.25433863855517L200.66666666666666,149.03884713842743L203,149.13238980568016L205.33333333333331,150.6284621369634L207.66666666666669,151.63909158379596L210,151.89807812335548L212.33333333333331,152.9785334982224L214.66666666666669,152.70200116144105L217,152.66344397091757L219.33333333333334,153.19410376245116L221.66666666666666,152.73700267768504L224,152.68795217690828L226.33333333333334,153.0288557864306L228.66666666666666,152.5305226558692L231,152.59859321401L233.33333333333334,152.3311896913378L235.66666666666666,153.082752445924L238,152.08715546503927L240.33333333333331,152.90399726455567L242.66666666666669,153.2732788019885L245,153.43585903407194L247.33333333333331,152.9567640640004L249.66666666666669,151.99486761198423L252,152.37457923634437L254.33333333333334,152.1542834711686L256.66666666666663,153.13355553185633" style="fill: none;" fill="none"></path></g><g><path stroke="rgb(204, 51, 17)" stroke-width="2px" d="M25.666666666666664,40.55986015001934L28,75.2428893794616L30.333333333333336,88.878884930189L32.666666666666664,95.86172139220966L35,50.025547966950526L37.333333333333336,75.34025312121457L39.666666666666664,92.82604220514894L42,52.52703660946759L44.33333333333333,27.734417134220475L46.666666666666664,12.494080212693333L49,3.3633283547242576L51.33333333333333,-1.4954512923447447L53.66666666666667,12.367840106583214L56,56.32216453222805L58.333333333333336,79.75533469141948L60.66666666666667,55.12880519744856L63,85.64206085560899L65.33333333333333,47.4854941771245L67.66666666666667,24.55572379883923L70,10.996484553812799L72.33333333333334,2.684304750205695L74.66666666666667,53.796642765766265L77,86.83783887456993L79.33333333333333,63.226500076221704L81.66666666666667,87.6906527667529L84,48.73344376950552L86.33333333333334,79.83732947637554L88.66666666666666,44.79533181960982L91,82.82202094234154L93.33333333333333,75.49145950603231L95.66666666666667,95.92901142763472L98,53.85558173584168L100.33333333333333,80.59349206131698L102.66666666666666,67.67303345760726L105,97.16659948363348L107.33333333333334,54.42608302736155L109.66666666666667,28.775940445691806L112,71.53103849926514L114.33333333333333,102.54221903421693L116.66666666666667,95.47567584645788L119,114.39842669017106L121.33333333333334,64.83887050059857L123.66666666666666,95.14826655572062L126,114.8917907839572L128.33333333333331,122.19852150946645L130.66666666666666,69.45683701585487L133,100.13704794214188L135.33333333333334,116.75819064952113L137.66666666666666,126.72633741974656L140,115.83215796946517L142.33333333333331,65.62066401615647L144.66666666666669,36.107572620474315L147,79.91242827504357L149.33333333333334,51.15019798392711L151.66666666666666,26.886210315100953L154,12.332356567778245L156.33333333333334,66.13369451897451L158.66666666666666,98.29698879880414L161,115.19163750427724L163.33333333333334,65.31322154293865L165.66666666666666,35.388338237346815L168,74.44460013866986L170.33333333333331,101.22093720054991L172.66666666666669,57.4308911650359L175,37.067070338466465L177.33333333333331,79.84605021477074L179.66666666666669,44.0291025193552L182,22.538024255753772L184.33333333333334,9.646284414800741L186.66666666666666,63.641759725494865L189,34.3667149297895L191.33333333333334,74.80833548024309L193.66666666666666,102.83924136389302L196,120.91866492725816L198.33333333333334,68.74808759389762L200.66666666666666,37.52039783933824L203,19.26387094898463L205.33333333333331,58.059465659321L207.66666666666669,32.21156348347307L210,16.874070137101253L212.33333333333331,46.827479534958506L214.66666666666669,24.36366295036557L217,63.74571963479249L219.33333333333334,98.39773163992243L221.66666666666666,117.6523515649522L224,129.99376815167375L226.33333333333334,129.05763932232443L228.66666666666666,73.6326913446052L231,103.74869753578486L233.33333333333334,120.08755136525144L235.66666666666666,118.30761457082932L238,67.1823951597848L240.33333333333331,100.3418721077346L242.66666666666669,119.41805365785976L245,83.48691889706265L247.33333333333331,109.66838932670959L249.66666666666669,124.78736592514004L252,71.07090241819233L254.33333333333334,42.988064522204475L256.66666666666663,21.991377843215652" style="fill: none;" fill="none"></path></g></g></g></g><g opacity="0.2"><g><g><g><path stroke="rgb(0, 119, 187)" stroke-width="2px" d="M25.666666666666664,32.84005729357403L28,108.32652060190837L30.333333333333336,121.83187353610994L32.666666666666664,123.08329957723618L35,123.78169931968054L37.333333333333336,124.49765312671663L39.666666666666664,126.22343160708748L42,128.27127295732498L44.33333333333333,128.37703692913055L46.666666666666664,129.98396941026053L49,130.08870768547058L51.33333333333333,133.83250025908154L53.66666666666667,133.64986765384674L56,133.49516330162686L58.333333333333336,132.60536857446036L60.66666666666667,135.42952744166058L63,136.13547044992447L65.33333333333333,136.86082549889883L67.66666666666667,137.0506907304128L70,137.33818469444913L72.33333333333334,138.57226181030273L74.66666666666667,139.61229471365613L77,140.83055265744528L79.33333333333333,138.13070821762085L81.66666666666667,139.5414864818255L84,142.8638877272606L86.33333333333334,139.39637092749277L88.66666666666666,143.5066243807475L91,141.5737782716751L93.33333333333333,140.35117137432098L95.66666666666667,142.7343510389328L98,140.6700750986735L100.33333333333333,142.90629295508066L102.66666666666666,143.83773682514828L105,144.68188512325287L107.33333333333334,145.41488307714462L109.66666666666667,145.2325611114502L112,145.01199531555176L114.33333333333333,146.0575962861379L116.66666666666667,143.8955099185308L119,148.30648003021875L121.33333333333334,146.18024029334387L123.66666666666666,148.5085422595342L126,144.75261716047922L128.33333333333331,145.76996751626334L130.66666666666666,149.3369651635488L133,148.0939088066419L135.33333333333334,147.66110587120056L137.66666666666666,149.59013052781424L140,146.7323053677877L142.33333333333331,142.65573579072952L144.66666666666669,146.94403258959454L147,149.31716042757034L149.33333333333334,151.578915198644L151.66666666666666,147.75414534409842L154,148.45295536518097L156.33333333333334,150.3752397298813L158.66666666666666,148.70023030042648L161,149.25861952702203L163.33333333333334,150.83342132965723L165.66666666666666,148.82234094540277L168,152.759814341863L170.33333333333331,149.8676488598188L172.66666666666669,143.74690699577332L175,148.91263155142465L177.33333333333331,151.70535135269165L179.66666666666669,150.14820325374603L182,150.42267380158106L184.33333333333334,151.5028554002444L186.66666666666666,146.43034029006958L189,149.07935120662054L191.33333333333334,149.9185878833135L193.66666666666666,148.77958405017853L196,150.17040518919626L198.33333333333334,148.81289867560068L200.66666666666666,148.71560988823572L203,149.27270380655924L205.33333333333331,152.87257063388824L207.66666666666669,153.15503575404486L210,152.28655793269476L212.33333333333331,154.5992165605227L214.66666666666669,152.28720265626907L217,152.60560818513235L219.33333333333334,153.99009344975153L221.66666666666666,152.05135105053586L224,152.6143764257431L226.33333333333334,153.5402112007141L228.66666666666666,151.78302296002707L231,152.70069905122122L233.33333333333334,151.93008440732956L235.66666666666666,154.2100965778033L238,150.59375999371213L240.33333333333331,154.12925996383032L242.66666666666669,153.82720110813776L245,153.67972938219705L247.33333333333331,152.23812160889307L249.66666666666669,150.55202293395996L252,152.94414667288464L254.33333333333334,151.82383982340497L256.66666666666663,154.60246362288794" style="fill: none;" fill="none"></path></g><g><path stroke="rgb(204, 51, 17)" stroke-width="2px" d="M25.666666666666664,40.55986015001934L28,96.05270691712698L30.333333333333336,101.96944065888724L32.666666666666664,104.07353707154593L35,-9.818160057067859L37.333333333333336,110.35960364341736L39.666666666666664,117.83100036780041L42,-6.229300419489525L51.33333333333333,-8.757179498672459L53.66666666666667,33.11751115322115L56,122.16754007339478L58.333333333333336,114.87754511833191L60.66666666666667,18.20637949307762L63,131.3990321556727L65.33333333333333,-9.739667892456042L72.33333333333334,-9.783509095509839L74.66666666666667,130.46346791585287L77,136.39898069699606L79.33333333333333,27.809771577517214L81.66666666666667,124.38670792182288L84,-9.70220359166461L86.33333333333334,126.49307845036189L88.66666666666666,-7.767610867818188L91,139.86201959848404L93.33333333333333,64.4956214030584L95.66666666666667,126.58533253272375L98,-9.254554430643687L100.33333333333333,120.70035435756049L102.66666666666666,48.292346477508566L105,141.40694725513458L107.33333333333334,-9.684690554936704L109.66666666666667,-9.699273029963171L112,135.66368518273038L114.33333333333333,149.05898966391882L116.66666666666667,84.87586108843487L119,142.78255291779837L121.33333333333334,-9.500463724136353L123.66666666666666,140.61236061652502L126,144.50707711776099L128.33333333333331,133.15861759583157L130.66666666666666,-9.655689716339099L133,146.1573643287023L135.33333333333334,141.68990470965704L137.66666666666666,141.678557574749L140,99.49088879426323L142.33333333333331,-9.696576913197827L144.66666666666669,-8.162064472834253L147,145.61971175670624L149.33333333333334,8.0068525473277L151.66666666666666,-9.509771188100157L154,-9.498424053192112L156.33333333333334,146.83570144573847L158.66666666666666,146.54193021853766L161,140.53361056248346L163.33333333333334,-9.504402399063098L165.66666666666666,-9.498986721038818L168,133.0289929906527L170.33333333333331,141.3854427933693L172.66666666666669,-8.254177888234448L175,6.521339098612476L177.33333333333331,144.01452002922693L179.66666666666669,-9.696319023768103L184.33333333333334,-9.691325346628794L186.66666666666666,144.63497269153595L189,-9.545852263768491L191.33333333333334,135.47076630592346L193.66666666666666,144.88560018936792L196,148.03780027230582L198.33333333333334,-9.507778406143176L203,-8.1209193865458L205.33333333333331,116.25285772482555L207.66666666666669,-6.560289780298838L210,-6.132169882456431L212.33333333333331,91.7575936317444L214.66666666666669,-9.332061926523828L217,122.81880466143289L219.33333333333334,150.37574964761734L221.66666666666666,146.53428145249686L224,148.50589303175607L226.33333333333334,127.65344607830048L228.66666666666666,-9.50473062197367L231,148.92270682255426L233.33333333333334,144.5958321094513L235.66666666666666,115.63770937919617L238,-9.505433956781992L240.33333333333331,150.08108752965927L242.66666666666669,148.03232598304749L245,29.590216755867026L247.33333333333331,148.94059497117996L249.66666666666669,147.4658308227857L252,-9.503792842229172L254.33333333333334,0.8638076782226825L256.66666666666663,-9.503652175267515" style="fill: none;" fill="none"></path></g></g></g></g></g></g><g transform="translate(50, 177)" clip-path="url(#clip_1)"><clipPath id="clip_1"><rect width="280" height="23"></rect></clipPath><g><g><line x1="0" y1="0" x2="0" y2="5" style="visibility: inherit;" fill="rgb(0, 0, 0)" stroke="rgb(204, 204, 204)" stroke-width="1px"></line><line x1="23.333333333333332" y1="0" x2="23.333333333333332" y2="5" style="visibility: inherit;" fill="rgb(0, 0, 0)" stroke="rgb(204, 204, 204)" stroke-width="1px"></line><line x1="46.666666666666664" y1="0" x2="46.666666666666664" y2="5" style="visibility: inherit;" fill="rgb(0, 0, 0)" stroke="rgb(204, 204, 204)" stroke-width="1px"></line><line x1="70" y1="0" x2="70" y2="5" style="visibility: inherit;" fill="rgb(0, 0, 0)" stroke="rgb(204, 204, 204)" stroke-width="1px"></line><line x1="93.33333333333333" y1="0" x2="93.33333333333333" y2="5" style="visibility: inherit;" fill="rgb(0, 0, 0)" stroke="rgb(204, 204, 204)" stroke-width="1px"></line><line x1="116.66666666666667" y1="0" x2="116.66666666666667" y2="5" style="visibility: inherit;" fill="rgb(0, 0, 0)" stroke="rgb(204, 204, 204)" stroke-width="1px"></line><line x1="140" y1="0" x2="140" y2="5" style="visibility: inherit;" fill="rgb(0, 0, 0)" stroke="rgb(204, 204, 204)" stroke-width="1px"></line><line x1="163.33333333333334" y1="0" x2="163.33333333333334" y2="5" style="visibility: inherit;" fill="rgb(0, 0, 0)" stroke="rgb(204, 204, 204)" stroke-width="1px"></line><line x1="186.66666666666666" y1="0" x2="186.66666666666666" y2="5" style="visibility: inherit;" fill="rgb(0, 0, 0)" stroke="rgb(204, 204, 204)" stroke-width="1px"></line><line x1="210" y1="0" x2="210" y2="5" style="visibility: inherit;" fill="rgb(0, 0, 0)" stroke="rgb(204, 204, 204)" stroke-width="1px"></line><line x1="233.33333333333334" y1="0" x2="233.33333333333334" y2="5" style="visibility: inherit;" fill="rgb(0, 0, 0)" stroke="rgb(204, 204, 204)" stroke-width="1px"></line><line x1="256.66666666666663" y1="0" x2="256.66666666666663" y2="5" style="visibility: inherit;" fill="rgb(0, 0, 0)" stroke="rgb(204, 204, 204)" stroke-width="1px"></line><line x1="280" y1="0" x2="280" y2="5" style="visibility: inherit;" fill="rgb(0, 0, 0)" stroke="rgb(204, 204, 204)" stroke-width="1px"></line></g><g transform="translate(0, 8)"><text x="0" y="0" dx="0em" dy="0.95em" style="text-anchor: middle; visibility: hidden; font-family: Roboto, sans-serif; font-size: 12px; font-weight: 200;" fill="rgb(33, 33, 33)" stroke="none" stroke-width="1px">-10</text><text x="23.333333333333332" y="0" dx="0em" dy="0.95em" style="text-anchor: middle; visibility: inherit; font-family: Roboto, sans-serif; font-size: 12px; font-weight: 200;" fill="rgb(33, 33, 33)" stroke="none" stroke-width="1px">0</text><text x="46.666666666666664" y="0" dx="0em" dy="0.95em" style="text-anchor: middle; visibility: inherit; font-family: Roboto, sans-serif; font-size: 12px; font-weight: 200;" fill="rgb(33, 33, 33)" stroke="none" stroke-width="1px">10</text><text x="70" y="0" dx="0em" dy="0.95em" style="text-anchor: middle; visibility: inherit; font-family: Roboto, sans-serif; font-size: 12px; font-weight: 200;" fill="rgb(33, 33, 33)" stroke="none" stroke-width="1px">20</text><text x="93.33333333333333" y="0" dx="0em" dy="0.95em" style="text-anchor: middle; visibility: inherit; font-family: Roboto, sans-serif; font-size: 12px; font-weight: 200;" fill="rgb(33, 33, 33)" stroke="none" stroke-width="1px">30</text><text x="116.66666666666667" y="0" dx="0em" dy="0.95em" style="text-anchor: middle; visibility: inherit; font-family: Roboto, sans-serif; font-size: 12px; font-weight: 200;" fill="rgb(33, 33, 33)" stroke="none" stroke-width="1px">40</text><text x="140" y="0" dx="0em" dy="0.95em" style="text-anchor: middle; visibility: inherit; font-family: Roboto, sans-serif; font-size: 12px; font-weight: 200;" fill="rgb(33, 33, 33)" stroke="none" stroke-width="1px">50</text><text x="163.33333333333334" y="0" dx="0em" dy="0.95em" style="text-anchor: middle; visibility: inherit; font-family: Roboto, sans-serif; font-size: 12px; font-weight: 200;" fill="rgb(33, 33, 33)" stroke="none" stroke-width="1px">60</text><text x="186.66666666666666" y="0" dx="0em" dy="0.95em" style="text-anchor: middle; visibility: inherit; font-family: Roboto, sans-serif; font-size: 12px; font-weight: 200;" fill="rgb(33, 33, 33)" stroke="none" stroke-width="1px">70</text><text x="210" y="0" dx="0em" dy="0.95em" style="text-anchor: middle; visibility: inherit; font-family: Roboto, sans-serif; font-size: 12px; font-weight: 200;" fill="rgb(33, 33, 33)" stroke="none" stroke-width="1px">80</text><text x="233.33333333333334" y="0" dx="0em" dy="0.95em" style="text-anchor: middle; visibility: inherit; font-family: Roboto, sans-serif; font-size: 12px; font-weight: 200;" fill="rgb(33, 33, 33)" stroke="none" stroke-width="1px">90</text><text x="256.66666666666663" y="0" dx="0em" dy="0.95em" style="text-anchor: middle; visibility: inherit; font-family: Roboto, sans-serif; font-size: 12px; font-weight: 200;" fill="rgb(33, 33, 33)" stroke="none" stroke-width="1px">100</text><text x="280" y="0" dx="0em" dy="0.95em" style="text-anchor: middle; visibility: hidden; font-family: Roboto, sans-serif; font-size: 12px; font-weight: 200;" fill="rgb(33, 33, 33)" stroke="none" stroke-width="1px">110</text></g><line x1="0" y1="0" x2="280" y2="0" fill="rgb(0, 0, 0)" stroke="rgb(204, 204, 204)" stroke-width="1px"></line></g></g></g></g></svg>